<svg xmlns="http://www.w3.org/2000/svg" viewBox="0 0 102.25 93.57"><defs><style>.cls-1{opacity:0.3;}.cls-2{fill:none;stroke:#000;stroke-linecap:round;stroke-miterlimit:10;}</style></defs><g id="Layer_2" data-name="Layer 2"><g id="Layer_6" data-name="Layer 6" class="cls-1"><line class="cls-2" x1="96.93" y1="41.32" x2="101.75" y2="36.5"/><line class="cls-2" x1="89.02" y1="49.23" x2="93.83" y2="44.41"/><line class="cls-2" x1="101.75" y1="49.23" x2="96.93" y2="44.41"/><line class="cls-2" x1="93.83" y1="41.32" x2="89.02" y2="36.5"/><line class="cls-2" x1="89.86" y1="85.16" x2="94.68" y2="80.34"/><line class="cls-2" x1="81.95" y1="93.07" x2="86.76" y2="88.25"/><line class="cls-2" x1="94.68" y1="93.07" x2="89.86" y2="88.25"/><line class="cls-2" x1="86.76" y1="85.16" x2="81.95" y2="80.34"/><line class="cls-2" x1="35.41" y1="77.38" x2="40.23" y2="72.56"/><line class="cls-2" x1="27.5" y1="85.29" x2="32.32" y2="80.47"/><line class="cls-2" x1="40.23" y1="85.29" x2="35.41" y2="80.47"/><line class="cls-2" x1="32.32" y1="77.38" x2="27.5" y2="72.56"/><line class="cls-2" x1="69.93" y1="5.32" x2="74.75" y2="0.5"/><line class="cls-2" x1="62.02" y1="13.23" x2="66.83" y2="8.41"/><line class="cls-2" x1="74.75" y1="13.23" x2="69.93" y2="8.41"/><line class="cls-2" x1="66.83" y1="5.32" x2="62.02" y2="0.5"/><line class="cls-2" x1="62.86" y1="49.16" x2="67.68" y2="44.34"/><line class="cls-2" x1="54.95" y1="57.07" x2="59.76" y2="52.25"/><line class="cls-2" x1="67.68" y1="57.07" x2="62.86" y2="52.25"/><line class="cls-2" x1="59.76" y1="49.16" x2="54.95" y2="44.34"/><line class="cls-2" x1="8.41" y1="41.38" x2="13.23" y2="36.56"/><line class="cls-2" x1="0.5" y1="49.29" x2="5.32" y2="44.47"/><line class="cls-2" x1="13.23" y1="49.29" x2="8.41" y2="44.47"/><line class="cls-2" x1="5.32" y1="41.38" x2="0.5" y2="36.56"/></g></g></svg>