<svg xmlns="http://www.w3.org/2000/svg" viewBox="0 0 39.19 64.45"><defs><style>.cls-1{fill:#fff;}</style></defs><g id="Layer_2" data-name="Layer 2"><g id="Layer_5" data-name="Layer 5"><ellipse class="cls-1" cx="19.06" cy="34.22" rx="17.06" ry="21.5"/><path d="M19.06,12.72c9.42,0,17.06,9.62,17.06,21.5s-7.64,21.5-17.06,21.5S2,46.09,2,34.22s7.64-21.5,17.06-21.5m0-2C8.55,10.72,0,21.26,0,34.22s8.55,23.5,19.06,23.5,19.06-10.54,19.06-23.5-8.55-23.5-19.06-23.5Z"/><path d="M19.06,14.22a12.7,12.7,0,0,1,6.06,1.55,16.07,16.07,0,0,1,5,4.24,21,21,0,0,1,3.4,6.37,25.21,25.21,0,0,1,0,15.68,21.09,21.09,0,0,1-3.4,6.36,16.25,16.25,0,0,1-5,4.25,12.69,12.69,0,0,1-12.12,0,16,16,0,0,1-5-4.25,20.87,20.87,0,0,1-3.4-6.36,25,25,0,0,1,0-15.68A20.81,20.81,0,0,1,8,20a15.85,15.85,0,0,1,5-4.24,12.7,12.7,0,0,1,6.06-1.55m0-1.5C9.64,12.72,2,22.34,2,34.22s7.64,21.5,17.06,21.5,17.06-9.63,17.06-21.5-7.64-21.5-17.06-21.5Z"/><path d="M19.06,56.72C9.1,56.72,1,46.62,1,34.22s8.1-22.5,18.06-22.5,18.06,10.09,18.06,22.5S29,56.72,19.06,56.72Zm0-41.5a11.71,11.71,0,0,0-5.59,1.43,14.91,14.91,0,0,0-4.68,4A20,20,0,0,0,5.55,26.7a24.16,24.16,0,0,0,0,15A20.24,20.24,0,0,0,8.79,47.8a15.12,15.12,0,0,0,4.68,4,11.68,11.68,0,0,0,11.17,0,15,15,0,0,0,4.69-4,20,20,0,0,0,3.23-6.06,24.16,24.16,0,0,0,0-15,19.76,19.76,0,0,0-3.23-6.06,15,15,0,0,0-4.68-4A11.77,11.77,0,0,0,19.06,15.22Z"/><circle class="cls-1" cx="19.07" cy="33.99" r="8.56"/><path d="M19.07,43.56A9.57,9.57,0,1,1,28.63,34,9.57,9.57,0,0,1,19.07,43.56Zm0-17.13A7.57,7.57,0,1,0,26.63,34,7.57,7.57,0,0,0,19.07,26.43Z"/><path d="M19.07,26.71A7.29,7.29,0,1,1,11.79,34a7.3,7.3,0,0,1,7.28-7.28m0-1.28A8.57,8.57,0,1,0,27.63,34a8.56,8.56,0,0,0-8.56-8.56Z"/><path d="M19.07,43.56A9.57,9.57,0,1,1,28.63,34,9.57,9.57,0,0,1,19.07,43.56Zm0-15.85A6.29,6.29,0,1,0,25.36,34,6.29,6.29,0,0,0,19.07,27.71Z"/><path d="M.82,27a108.91,108.91,0,0,0,18.27,2.32,87.56,87.56,0,0,0,17.83-2.67c-1.45-6-4.89-9-7.66-13.7C27.22,9.48,19,0,19,0c-4.88,5.86-6.93,9-9.86,12.94C6,17.14,2.77,21.12.82,27Z"/><rect x="31.12" y="49.59" width="5" height="15.81" rx="2.5" transform="translate(-26.75 29.36) rotate(-34.7)"/></g></g></svg>