<?xml version="1.0" encoding="utf-8"?>
<!-- Generator: Adobe Illustrator 22.0.1, SVG Export Plug-In . SVG Version: 6.00 Build 0)  -->
<svg version="1.1" id="Layer_1" xmlns="http://www.w3.org/2000/svg" xmlns:xlink="http://www.w3.org/1999/xlink" x="0px" y="0px"
	 viewBox="0 0 414.1 375" style="enable-background:new 0 0 414.1 375;" xml:space="preserve">
<style type="text/css">
	.st0{fill:#020202;}
	.st1{fill:#FFFFFF;}
</style>
<g>
	<path d="M213,248c1-13.2,5.6-28.3,7.4-40c0.5-3.2,3.9-5.1,6.8-3.7c13.6,6.6,2.8,29.5,3.8,43.7c7.3-13,16.4-30.4,20.7-40.1
		c1.3-2.9,1.3-5.9,5.3-4.9c7.3,1.8,4.7-0.5,7.1,1.4c3.8,3,5.9,0.6,1.9,14.6c-3.9,13.5-6.6,22-8,36c-1,10,3.6,12.2,6,13.1l0.1,0
		c2.5,1,5.4-0.1,6.7-2.5c3.3-6.1,6.9-12.1,8.7-18.6c3.3-12.1,3.9-24.9,7.5-36.9c0.2-0.7,0.6-1.4,1.1-2.1c4.5-6.2,14.1-4.4,16.6,2.9
		c0.5,1.6,0.8,3.1,0.6,4.6c-2,16.5-5.9,32.7-9.1,49.1C293,276,305,275,316,260c0-10,0.9-16.2,2-24c2-14,3.6-21.1,11.7-33.4
		c4-6,9.3-9.6,26.1-8c6.2,0.6,8.9,6.7,8.3,10.3c-1.5,9-3,11-6,17c-1.1,2.1-7.2,8.6-9.3,7.6c0.8-7.1,14.3-21.4,3.1-26.4
		c-11.8-5.2-21,33.5-17.8,51c2.6,14.3,13.7,16.7,22.1,7.8c12.6-13.3,19.9-31.5,20.2-52.9c0-2.4,2.8-3.9,4.7-2.4
		c4.4,3.5,7.7,10.3,8.1,14.2c2.5,23.3-10.3,36.2-27,49.8c-14.2,11.5-29.3,12.6-43.9-1.7c-10,13.4-21.3,18.5-34.6,5.1
		C258.5,291.5,247,282,246,245c-4.4,10.8-10.3,24-14.1,30.9c-0.2,0.3-0.5,0.6-0.6,1C230,285,208.2,284,210,276c0.3-1.5,0.8-3.5,1-5
		C212,265,212.1,259.8,213,248z M208,250c-4.5,29.5-12.6,48.8-40.7,37.6c-8.1-3.2-14.5-21.3-14.9-32.8
		c-0.8-26.3,11.8-44.3,32.8-47.4C210.2,203.7,209.9,237.1,208,250z M190.8,273.8c16.5-16.2,17.4-32.1,3.1-48.4
		c-8-9.2-23.3-4.2-24.5,8c-1,10.1-3.9,18.2-4.9,27.8C163.2,275.7,180.5,284,190.8,273.8z"/>
	<path d="M103.5,248.8c2.3-15,12.5-25.8,24.5-32.8c4.8-4.7,8.9-12.1,11.5-17.2c2.5-4.8-1.2-10.2-6.3-8.3
		c-23.7,8.8-46.8,37.5-58.7,57.3c-2.9,4.9-0.1,11.1,5.5,12.2c12.5,2.4,31.9,2.3,42.9,5.6c17.1,5.1,25.2,16.9,17.9,38
		c42.5,0.4,83.7,23.5,121.9-8.5c6,16.6-1.7,31.7-22.5,32.3c-26.9,0.8-63.2-10.6-89.9-14.7c-16.2-2.5-21.3,2-35.2,15.3
		c-6.4,6.2-18,10.5-26.7,9.8c-3-0.2-5.8-1.6-8.7-3.5c-9.4-6.3-9.5-20.4,0.2-26.2c0.5-0.3,1-0.6,1.5-0.8c8.6-3.9,19.2-3,28.3-6.1
		c1.4-0.5,2.8-1.3,4.1-2.2c6.9-4.9,7-15.4-0.1-19.9c-0.7-0.4-1.4-0.8-2.1-1c-9.1-3.2-19.2-3.3-28.7-5.7c-17-4.3-22.9-15-16.3-31.6
		c11.3-28.6,31.1-49.8,58.4-63.2c17.4-8.6,32.1,1.1,28.1,18.6c-5.5,24.2-20.1,42.3-42.4,58.9C107.5,257.5,102.9,252.8,103.5,248.8z"
		/>
	<path d="M186,102c4-15,8-35,16-36c0.6-0.1,2.9,0.3,4.9,0.6c1.5,0.2,2.1,0.4,2.2,2.1c0.1,1.4-0.1,5.3-1.1,7.3c3-3,3.6-3,11-7
		c13-7,22,7,23,28.3c0.1,1.2,0.1,2.4,0,3.6c0,0.5-0.7,6.1-2,14c-1,6-2.3,11.4-6,18c-15,27-42,9-42,9s-1,14.6-1,20
		c0,1.7,1.2,11.2,1.8,14.8c0,0,0,0,0,0c0.2,1.2,0.7,2.3,1.5,3.2l0.8,1c2.5,3,0.1,7.7-3.7,7.2c-0.2,0-0.3-0.1-0.5-0.1
		C175.4,184.7,178,156,179,145c-8.9,3-17,5.7-21.8,1.1c-4.2-4.1-4.2-10.6-5.1-9.7C143,146,140,158,123.2,153.8
		c-9.5-2.4-8.7-20-9.3-30.7c-0.6-11.5,2.6-23.7,6.4-34.7c1.2-3.4,4.5-8.8,7.9-11.7c1.4-1.2,3.2-1.8,5-1.4c7,1.5,2.6,12.8,1.9,18.1
		c-2,15.1-6,22.7-7,38.7c-0.2,2.7-0.6,8.3,2,9c2.4,0.7,6.7-0.4,9-2c3-2,5.1-5.9,9-11c2-13,2.8-17.4,4-22c2-8,4.8-17.5,8.4-27.2
		c1.1-3,2.8-5.2,6.3-7.4c1-0.6,2.3-1,3.5-0.7c6,1.2,4.8,12.6,4.1,17.5c-2.2,14.7-4.4,29.2-7.9,43.8c-0.6,2.3,0.7,4.8,2.9,5.7l0.1,0
		c2.3,1,8.6-4.4,10.6-5.8 M210,138c11-6,14-12,18-28c3.7-14.7,6-49-25-22c-4,12.1-8,26-8,39C195,135,200,143.5,210,138z"/>
	<g id="XMLID_1_">
		<g>
			<path class="st0" d="M367.9,77.7c3.8,15.1-12.3,56.8-27,62.9c-15.3,6.4-28.4-0.5-26.4-17.1c0.9-7.5,4.4-13.5,6-21
				c0.6-2.8,6-16.1,6-19c0-2.9-4.1-4.6-7-5l-3,11c-2.5,7.5-5,14.3-7.7,21.8c-9.9,27.5-18.9,36.8-38.8,34.9
				c-13-1.2-23.9-15.3-24.8-32.9l-0.4-11.3c-0.7-15.5,3.9-24,11.1-32c3.1-3.4,10-10,21-10c9,0,13,7,14,13c1.2,7,2,14-1,22
				c-4.1,10.9-14,19-28,27c6,17,19.1,14.4,26.9,1c33.1-57,6.6-52.8,12.6-73.3c0.6-2.2,1.4-4.3,2.3-6.4c2.4-5.8,12.5-6.9,15-1.1
				c0.5,1.1,1.4,2.1,1.4,3.3c0.2,7.1-2.8,5.1-3.9,13.4c25.1,14.7,25.1,19.7,16.1,52.7c-0.8,2.9-3.1,9.5-4,13c-0.7,2.6,5,3.8,7,2
				c11.2-9.9,15.4-28.3,18-43c1.5-8.5-13-13-7-14c12.2-2,20.2,3.7,21.4,7.9C367.9,77.5,367.9,77.6,367.9,77.7z"/>
		</g>
		<g>
		</g>
	</g>
	<path d="M105,49c-8.2-1.8-56.8,50.1-52,65c4.7,14.7,21.6,4.5,33,6c19.7,2.6,25.5,17.1,13.3,32.8c-6.5,8.4-35.5,23.4-48.1,15
		c-4.6-3.1-4.2-12.6,0-16.8s17.7-8.1,18.3-5.3c0.5,2.2-6.3,4.4-8.5,5.8c-14,8.6-1.7,8.9,14,2.6c9.1-3.7,14-4.3,17.6-11.5
		c1-2,0.5-4.8-1.2-6.2c-8.6-7.3-22.5-0.8-33.7-1.8c-20.4-1.7-27.4-11.7-21-31.2c9.1-27.7,26.9-49.1,51.6-64
		c17.3-10.4,31.3-1.5,29.1,18.1c-1.6,14.8-10.9,36.9-26.1,50.6c-14.9,13.5-29.4-3.9-26.3-8c5.1-6.8,10,11,24-8
		c12.5-16.9,14.8-19.2,19-36C108.8,52.7,108.3,49.7,105,49z"/>
	<path class="st1" d="M260.6,116.7c-2.9-13.2-0.8-25.3,5.5-35.3c6.3-10,21.8-3.6,19.3,7.9C282.7,101.2,274.5,110.5,260.6,116.7z"/>
</g>
</svg>
